<?xml version="1.0" encoding="UTF-8" standalone="no"?>
<svg width="945px" height="1516px" viewBox="0 0 945 1516" version="1.1" xmlns="http://www.w3.org/2000/svg" xmlns:xlink="http://www.w3.org/1999/xlink" xmlns:sketch="http://www.bohemiancoding.com/sketch/ns">
    <!-- Generator: Sketch 3.4.4 (17249) - http://www.bohemiancoding.com/sketch -->
    <title>bigbg3</title>
    <desc>Created with Sketch.</desc>
    <defs></defs>
    <g id="Page-1" stroke="none" stroke-width="1" fill="none" fill-rule="evenodd" sketch:type="MSPage">
        <path d="M0,0 L0,1515.89062 L945,1515.89062 L945,0 L0,0 Z M387.008,627.80925 L398.226,627.80925 L393.656,568.59225 L392.825,568.59225 L387.008,627.80925 Z M257.239,678.69125 C255.162,678.69125 253.915,678.25325 252.669,674.30525 L235.634,626.93225 L235.634,678.69125 L194.5,678.69125 L194.5,539.64225 C194.5,536.57125 195.747,534.81625 198.655,534.81625 L234.803,534.81625 C236.88,534.81625 237.711,535.25525 239.373,539.20325 L263.056,600.17425 L286.324,539.20325 C287.986,535.25525 288.817,534.81625 290.894,534.81625 L327.457,534.81625 C330.366,534.81625 331.612,536.57125 331.612,539.64225 L331.612,678.69125 L290.063,678.69125 L290.063,626.93225 L273.443,674.30525 C272.197,678.25325 270.951,678.69125 268.873,678.69125 L257.239,678.69125 L257.239,678.69125 L257.239,678.69125 L257.239,678.69125 Z M532.063,620.35225 L555.744,678.69125 L511.287,678.69125 L495.914,636.14325 L495.914,678.69125 L454.781,678.69125 L454.781,539.64225 C454.781,536.57125 456.027,534.81625 458.936,534.81625 L507.549,534.81625 C529.316,534.81625 550.633,538.67725 550.633,579.47225 C550.633,603.07425 546.252,617.06225 532.063,620.35225 L532.063,620.35225 Z M602.951,627.09025 L602.951,678.69125 L560.572,678.69125 L560.572,539.64225 C560.572,536.57125 561.818,534.81625 564.727,534.81625 L644.4,534.81625 C647.309,534.81625 648.555,536.57125 648.555,539.64225 L648.555,564.20625 C648.555,567.27625 647.309,569.03125 644.4,569.03125 L602.951,569.03125 L602.951,592.52925 L636.09,592.52925 C638.998,592.52925 640.244,594.28425 640.244,597.35525 L640.244,622.26425 C640.244,625.33525 638.998,627.09025 636.09,627.09025 L602.951,627.09025 L602.951,627.09025 L602.951,627.09025 L602.951,627.09025 Z M500.523,598.85825 C505.662,598.85825 507.549,596.66425 507.549,589.49625 L507.549,579.90925 C507.549,573.35325 506.246,568.59225 500.406,568.59225 L496.744,568.59225 L496.744,598.85825 L500.523,598.85825 L500.523,598.85825 L500.523,598.85825 L500.523,598.85825 Z M449.747,678.69125 L404.459,678.69125 L401.966,665.53125 C401.135,662.02325 399.473,661.58525 396.98,661.58525 L389.086,661.58525 C386.592,661.58525 384.931,662.02325 384.1,665.53125 L381.607,678.69125 L336.318,678.69125 L360.177,539.20325 C361.008,535.25525 362.254,534.81625 364.332,534.81625 L421.733,534.81625 C423.811,534.81625 425.057,535.25525 425.888,539.20325 L449.747,678.69125 Z M511.793,955.36725 L473.004,955.36725 L462.388,857.71125 L461.98,857.71125 L461.98,955.36725 L426.048,955.36725 L426.048,688.45425 C426.048,685.93025 427.273,684.84725 430.131,684.84725 L467.696,684.84725 C494.072,684.84725 502.811,690.78625 502.811,753.77725 L502.811,761.52025 C502.811,784.39325 503.758,818.17625 491.787,823.57425 L511.793,955.36725 Z M290.896,723.44225 C288.038,723.44225 287.325,727.77125 287.325,734.26325 L287.325,906.31525 C287.325,912.80525 288.038,917.13325 290.896,917.13325 C293.754,917.13325 294.468,912.80525 294.468,906.31525 L294.468,734.26325 C294.468,727.77125 293.754,723.44225 290.896,723.44225 L290.896,723.44225 Z M563.137,796.21925 L563.545,796.21925 L563.545,688.45425 C563.545,685.93025 564.771,684.84725 567.629,684.84725 L593.352,684.84725 C596.211,684.84725 597.436,685.93025 597.436,688.45425 L597.436,955.36725 L563.137,955.36725 L550.889,842.10925 L550.48,842.10925 L550.48,955.36725 L516.182,955.36725 L516.182,688.45425 C516.182,685.93025 517.406,684.84725 520.264,684.84725 L545.172,684.84725 C548.439,684.84725 550.072,686.65125 550.48,691.34025 L563.137,796.21925 L563.137,796.21925 L563.137,796.21925 L563.137,796.21925 Z M641.533,873.85225 L651.127,873.85225 L647.146,752.65825 L646.33,752.65825 L641.533,873.85225 L641.533,873.85225 L641.533,873.85225 L641.533,873.85225 Z M644.289,923.26625 C641.838,923.26625 640.613,924.70925 640.205,930.48125 L638.164,955.36725 L602.232,955.36725 L622.24,691.34025 C622.648,686.65125 624.281,684.84725 627.547,684.84725 L665.521,684.84725 C668.787,684.84725 670.42,686.65125 670.83,691.34025 L690.836,955.36725 L654.496,955.36725 L652.455,930.48125 C652.047,924.70925 650.822,923.26625 648.371,923.26625 L644.289,923.26625 L644.289,923.26625 L644.289,923.26625 L644.289,923.26625 Z M750.537,917.11725 L750.537,955.36725 L696.346,955.36725 L696.346,688.45425 C696.346,685.93025 697.57,684.84725 700.43,684.84725 L727.48,684.84725 C730.34,684.84725 731.564,685.93025 731.564,688.45425 L731.564,913.51025 L746.453,913.51025 C749.311,913.51025 750.537,914.59225 750.537,917.11725 L750.537,917.11725 Z M290.896,957.53125 C254.148,957.53125 252.106,919.52525 252.106,889.00025 L252.106,751.57625 C252.106,726.32725 254.148,683.04425 290.896,683.04425 C327.644,683.04425 329.686,726.32725 329.686,751.57625 L329.686,889.00025 C329.686,915.33025 327.644,957.53125 290.896,957.53125 L290.896,957.53125 Z M377.867,957.53125 C341.119,957.53125 339.077,915.33025 339.077,889.00025 L339.077,688.45425 C339.077,685.93025 340.302,684.84725 343.16,684.84725 L370.212,684.84725 C373.071,684.84725 374.296,685.93025 374.296,688.45425 L374.296,906.31525 C374.296,912.80525 375.009,917.13325 377.867,917.13325 C380.725,917.13325 381.439,912.80525 381.439,906.31525 L381.439,688.45425 C381.439,685.93025 382.663,684.84725 385.522,684.84725 L412.574,684.84725 C415.432,684.84725 416.657,685.93025 416.657,688.45425 L416.657,889.00025 C416.657,915.33025 414.615,957.53125 377.867,957.53125 L377.867,957.53125 Z M468.513,740.75625 C468.513,728.93425 466.879,724.88425 464.021,724.88425 L461.267,724.88425 L461.267,799.04725 L464.021,799.04725 C468.104,799.04725 468.513,793.70725 468.513,784.69025 L468.513,740.75625 L468.513,740.75625 L468.513,740.75625 L468.513,740.75625 Z M194.5,917.28125 C194.5,914.75625 195.746,913.69525 198.603,913.69525 C198.603,913.69525 203.991,913.69725 204.429,913.69525 C206.597,913.69025 207.767,911.90825 207.767,902.85825 L207.802,688.45425 C207.802,685.93025 209.027,684.84725 211.885,684.84725 L238.937,684.84725 C241.795,684.84725 243.02,685.93025 243.02,688.45425 L243.02,895.13125 C243.02,939.84525 238.238,957.53125 212.904,957.53125 C208.312,957.53125 199.427,955.94825 194.5,954.00225 C194.501,954.00225 194.5,917.28125 194.5,917.28125 Z M687.455,627.80925 L693.271,568.59225 L694.103,568.59225 L698.672,627.80925 L687.455,627.80925 Z M726.751,539.20325 C725.919,535.25525 724.673,534.81625 722.596,534.81625 L665.194,534.81625 C663.117,534.81625 661.871,535.25525 661.039,539.20325 L636.691,678.69125 L682.47,678.69125 L684.963,665.53125 C685.793,662.02325 687.455,661.58525 689.948,661.58525 L697.842,661.58525 C700.336,661.58525 701.998,662.02325 702.828,665.53125 L705.321,678.69125 L750.609,678.69125 L726.751,539.20325 L726.751,539.20325 Z" id="bigbg3" fill="#002461" sketch:type="MSShapeGroup"></path>
    </g>
</svg>