<?xml version="1.0" encoding="UTF-8" standalone="no"?>
<svg width="945px" height="1516px" viewBox="0 0 945 1516" version="1.1" xmlns="http://www.w3.org/2000/svg" xmlns:xlink="http://www.w3.org/1999/xlink" xmlns:sketch="http://www.bohemiancoding.com/sketch/ns">
    <!-- Generator: Sketch 3.4.4 (17249) - http://www.bohemiancoding.com/sketch -->
    <title>bigbg1</title>
    <desc>Created with Sketch.</desc>
    <defs></defs>
    <g id="Page-1" stroke="none" stroke-width="1" fill="none" fill-rule="evenodd" sketch:type="MSPage">
        <path d="M0,0 L0,1515.89062 L945,1515.89062 L945,0 L0,0 Z M387.508,627.80925 L398.726,627.80925 L394.156,568.59225 L393.325,568.59225 L387.508,627.80925 Z M257.739,678.69125 C255.662,678.69125 254.415,678.25325 253.169,674.30525 L236.134,626.93225 L236.134,678.69125 L195,678.69125 L195,539.64225 C195,536.57125 196.247,534.81625 199.155,534.81625 L235.303,534.81625 C237.38,534.81625 238.211,535.25525 239.873,539.20325 L263.556,600.17425 L286.824,539.20325 C288.486,535.25525 289.317,534.81625 291.394,534.81625 L327.957,534.81625 C330.866,534.81625 332.112,536.57125 332.112,539.64225 L332.112,678.69125 L290.563,678.69125 L290.563,626.93225 L273.943,674.30525 C272.697,678.25325 271.451,678.69125 269.373,678.69125 L257.739,678.69125 L257.739,678.69125 L257.739,678.69125 L257.739,678.69125 Z M532.563,620.35225 L556.244,678.69125 L511.787,678.69125 L496.414,636.14325 L496.414,678.69125 L455.281,678.69125 L455.281,539.64225 C455.281,536.57125 456.527,534.81625 459.436,534.81625 L508.049,534.81625 C529.816,534.81625 551.133,538.67725 551.133,579.47225 C551.133,603.07425 546.752,617.06225 532.563,620.35225 L532.563,620.35225 Z M603.451,627.09025 L603.451,678.69125 L561.072,678.69125 L561.072,539.64225 C561.072,536.57125 562.318,534.81625 565.227,534.81625 L644.9,534.81625 C647.809,534.81625 649.055,536.57125 649.055,539.64225 L649.055,564.20625 C649.055,567.27625 647.809,569.03125 644.9,569.03125 L603.451,569.03125 L603.451,592.52925 L636.59,592.52925 C639.498,592.52925 640.744,594.28425 640.744,597.35525 L640.744,622.26425 C640.744,625.33525 639.498,627.09025 636.59,627.09025 L603.451,627.09025 L603.451,627.09025 L603.451,627.09025 L603.451,627.09025 Z M501.023,598.85825 C506.162,598.85825 508.049,596.66425 508.049,589.49625 L508.049,579.90925 C508.049,573.35325 506.746,568.59225 500.906,568.59225 L497.244,568.59225 L497.244,598.85825 L501.023,598.85825 L501.023,598.85825 L501.023,598.85825 L501.023,598.85825 Z M450.247,678.69125 L404.959,678.69125 L402.466,665.53125 C401.635,662.02325 399.973,661.58525 397.48,661.58525 L389.586,661.58525 C387.092,661.58525 385.431,662.02325 384.6,665.53125 L382.107,678.69125 L336.818,678.69125 L360.677,539.20325 C361.508,535.25525 362.754,534.81625 364.832,534.81625 L422.233,534.81625 C424.311,534.81625 425.557,535.25525 426.388,539.20325 L450.247,678.69125 Z M512.293,955.36725 L473.504,955.36725 L462.888,857.71125 L462.48,857.71125 L462.48,955.36725 L426.548,955.36725 L426.548,688.45425 C426.548,685.93025 427.773,684.84725 430.631,684.84725 L468.196,684.84725 C494.572,684.84725 503.311,690.78625 503.311,753.77725 L503.311,761.52025 C503.311,784.39325 504.258,818.17625 492.287,823.57425 L512.293,955.36725 Z M291.396,723.44225 C288.538,723.44225 287.825,727.77125 287.825,734.26325 L287.825,906.31525 C287.825,912.80525 288.538,917.13325 291.396,917.13325 C294.254,917.13325 294.968,912.80525 294.968,906.31525 L294.968,734.26325 C294.968,727.77125 294.254,723.44225 291.396,723.44225 L291.396,723.44225 Z M563.637,796.21925 L564.045,796.21925 L564.045,688.45425 C564.045,685.93025 565.271,684.84725 568.129,684.84725 L593.852,684.84725 C596.711,684.84725 597.936,685.93025 597.936,688.45425 L597.936,955.36725 L563.637,955.36725 L551.389,842.10925 L550.98,842.10925 L550.98,955.36725 L516.682,955.36725 L516.682,688.45425 C516.682,685.93025 517.906,684.84725 520.764,684.84725 L545.672,684.84725 C548.939,684.84725 550.572,686.65125 550.98,691.34025 L563.637,796.21925 L563.637,796.21925 L563.637,796.21925 L563.637,796.21925 Z M642.033,873.85225 L651.627,873.85225 L647.646,752.65825 L646.83,752.65825 L642.033,873.85225 L642.033,873.85225 L642.033,873.85225 L642.033,873.85225 Z M644.789,923.26625 C642.338,923.26625 641.113,924.70925 640.705,930.48125 L638.664,955.36725 L602.732,955.36725 L622.74,691.34025 C623.148,686.65125 624.781,684.84725 628.047,684.84725 L666.021,684.84725 C669.287,684.84725 670.92,686.65125 671.33,691.34025 L691.336,955.36725 L654.996,955.36725 L652.955,930.48125 C652.547,924.70925 651.322,923.26625 648.871,923.26625 L644.789,923.26625 L644.789,923.26625 L644.789,923.26625 L644.789,923.26625 Z M751.037,917.11725 L751.037,955.36725 L696.846,955.36725 L696.846,688.45425 C696.846,685.93025 698.07,684.84725 700.93,684.84725 L727.98,684.84725 C730.84,684.84725 732.064,685.93025 732.064,688.45425 L732.064,913.51025 L746.953,913.51025 C749.811,913.51025 751.037,914.59225 751.037,917.11725 L751.037,917.11725 Z M291.396,957.53125 C254.648,957.53125 252.606,919.52525 252.606,889.00025 L252.606,751.57625 C252.606,726.32725 254.648,683.04425 291.396,683.04425 C328.144,683.04425 330.186,726.32725 330.186,751.57625 L330.186,889.00025 C330.186,915.33025 328.144,957.53125 291.396,957.53125 L291.396,957.53125 Z M378.367,957.53125 C341.619,957.53125 339.577,915.33025 339.577,889.00025 L339.577,688.45425 C339.577,685.93025 340.802,684.84725 343.66,684.84725 L370.712,684.84725 C373.571,684.84725 374.796,685.93025 374.796,688.45425 L374.796,906.31525 C374.796,912.80525 375.509,917.13325 378.367,917.13325 C381.225,917.13325 381.939,912.80525 381.939,906.31525 L381.939,688.45425 C381.939,685.93025 383.163,684.84725 386.022,684.84725 L413.074,684.84725 C415.932,684.84725 417.157,685.93025 417.157,688.45425 L417.157,889.00025 C417.157,915.33025 415.115,957.53125 378.367,957.53125 L378.367,957.53125 Z M469.013,740.75625 C469.013,728.93425 467.379,724.88425 464.521,724.88425 L461.767,724.88425 L461.767,799.04725 L464.521,799.04725 C468.604,799.04725 469.013,793.70725 469.013,784.69025 L469.013,740.75625 L469.013,740.75625 L469.013,740.75625 L469.013,740.75625 Z M195,917.28125 C195,914.75625 196.246,913.69525 199.103,913.69525 C199.103,913.69525 204.491,913.69725 204.929,913.69525 C207.097,913.69025 208.267,911.90825 208.267,902.85825 L208.302,688.45425 C208.302,685.93025 209.527,684.84725 212.385,684.84725 L239.437,684.84725 C242.295,684.84725 243.52,685.93025 243.52,688.45425 L243.52,895.13125 C243.52,939.84525 238.738,957.53125 213.404,957.53125 C208.812,957.53125 199.927,955.94825 195,954.00225 C195.001,954.00225 195,917.28125 195,917.28125 Z M687.955,627.80925 L693.771,568.59225 L694.603,568.59225 L699.172,627.80925 L687.955,627.80925 Z M727.251,539.20325 C726.419,535.25525 725.173,534.81625 723.096,534.81625 L665.694,534.81625 C663.617,534.81625 662.371,535.25525 661.539,539.20325 L637.191,678.69125 L682.97,678.69125 L685.463,665.53125 C686.293,662.02325 687.955,661.58525 690.448,661.58525 L698.342,661.58525 C700.836,661.58525 702.498,662.02325 703.328,665.53125 L705.821,678.69125 L751.109,678.69125 L727.251,539.20325 L727.251,539.20325 Z" id="bigbg1" fill="#781425" sketch:type="MSShapeGroup"></path>
    </g>
</svg>