<?xml version="1.0" encoding="UTF-8" standalone="no"?>
<svg width="557px" height="423px" viewBox="0 0 557 423" version="1.1" xmlns="http://www.w3.org/2000/svg" xmlns:xlink="http://www.w3.org/1999/xlink" xmlns:sketch="http://www.bohemiancoding.com/sketch/ns">
    <title>logo</title>
    <description>Created with Sketch (http://www.bohemiancoding.com/sketch)</description>
    <defs></defs>
    <g id="Page-1" stroke="none" stroke-width="1" fill="none" fill-rule="evenodd" sketch:type="MSPage">
        <g id="Artboard-1" sketch:type="MSArtboardGroup" transform="translate(-255.000000, -161.000000)">
            <g id="backgrounds" sketch:type="MSLayerGroup" transform="translate(-1.000000, 0.000000)" fill="#F54F2D">
                <rect d="M0,0 L0,911 L1067,911 L1067,0 L0,0 Z M0,0" id="Rectangle-1" sketch:type="MSShapeGroup" x="0" y="0" width="1067" height="911"></rect>
            </g>
            <g id="marfa_FINAL" sketch:type="MSLayerGroup" transform="translate(255.000000, 161.000000)" fill="#000000">
                <path d="M192.508,93.278 L203.726,93.278 L199.156,34.061 L198.325,34.061 L192.508,93.278 L192.508,93.278 L192.508,93.278 L192.508,93.278 Z M62.739,144.16 C60.662,144.16 59.415,143.722 58.169,139.774 L41.134,92.401 L41.134,144.16 L0,144.16 L0,5.111 C0,2.04 1.247,0.285 4.155,0.285 L40.303,0.285 C42.38,0.285 43.211,0.724 44.873,4.672 L68.556,65.643 L91.824,4.672 C93.486,0.724 94.317,0.285 96.394,0.285 L132.957,0.285 C135.866,0.285 137.112,2.04 137.112,5.111 L137.112,144.16 L95.563,144.16 L95.563,92.401 L78.943,139.774 C77.697,143.722 76.451,144.16 74.373,144.16 L62.739,144.16 L62.739,144.16 L62.739,144.16 L62.739,144.16 Z M337.563,85.821 L361.244,144.16 L316.787,144.16 L301.414,101.612 L301.414,144.16 L260.281,144.16 L260.281,5.111 C260.281,2.04 261.527,0.285 264.436,0.285 L313.049,0.285 C334.816,0.285 356.133,4.146 356.133,44.941 C356.133,68.543 351.752,82.531 337.563,85.821 L337.563,85.821 Z M408.451,92.559 L408.451,144.16 L366.072,144.16 L366.072,5.111 C366.072,2.04 367.318,0.285 370.227,0.285 L449.9,0.285 C452.809,0.285 454.055,2.04 454.055,5.111 L454.055,29.675 C454.055,32.745 452.809,34.5 449.9,34.5 L408.451,34.5 L408.451,57.998 L441.59,57.998 C444.498,57.998 445.744,59.753 445.744,62.824 L445.744,87.733 C445.744,90.804 444.498,92.559 441.59,92.559 L408.451,92.559 L408.451,92.559 L408.451,92.559 L408.451,92.559 Z M306.023,64.327 C311.162,64.327 313.049,62.133 313.049,54.965 L313.049,45.378 C313.049,38.822 311.746,34.061 305.906,34.061 L302.244,34.061 L302.244,64.327 L306.023,64.327 L306.023,64.327 L306.023,64.327 L306.023,64.327 Z M255.247,144.16 L209.959,144.16 L207.466,131 C206.635,127.492 204.973,127.054 202.48,127.054 L194.586,127.054 C192.092,127.054 190.431,127.492 189.6,131 L187.107,144.16 L141.818,144.16 L165.677,4.672 C166.508,0.724 167.754,0.285 169.832,0.285 L227.233,0.285 C229.311,0.285 230.557,0.724 231.388,4.672 L255.247,144.16 L255.247,144.16 Z M255.247,144.16" id="Fill-1" sketch:type="MSShapeGroup"></path>
                <path d="M317.293,420.836 L278.504,420.836 L267.888,323.18 L267.48,323.18 L267.48,420.836 L231.548,420.836 L231.548,153.923 C231.548,151.399 232.773,150.316 235.631,150.316 L273.196,150.316 C299.572,150.316 308.311,156.255 308.311,219.246 L308.311,226.989 C308.311,249.862 309.258,283.645 297.287,289.043 L317.293,420.836 L317.293,420.836 L317.293,420.836 L317.293,420.836 Z M96.396,188.911 C93.538,188.911 92.825,193.24 92.825,199.732 L92.825,371.784 C92.825,378.274 93.538,382.602 96.396,382.602 C99.254,382.602 99.968,378.274 99.968,371.784 L99.968,199.732 C99.968,193.24 99.254,188.911 96.396,188.911 L96.396,188.911 Z M368.637,261.688 L369.045,261.688 L369.045,153.923 C369.045,151.399 370.271,150.316 373.129,150.316 L398.852,150.316 C401.711,150.316 402.936,151.399 402.936,153.923 L402.936,420.836 L368.637,420.836 L356.389,307.578 L355.98,307.578 L355.98,420.836 L321.682,420.836 L321.682,153.923 C321.682,151.399 322.906,150.316 325.764,150.316 L350.672,150.316 C353.939,150.316 355.572,152.12 355.98,156.809 L368.637,261.688 L368.637,261.688 L368.637,261.688 L368.637,261.688 Z M447.033,339.321 L456.627,339.321 L452.646,218.127 L451.83,218.127 L447.033,339.321 L447.033,339.321 L447.033,339.321 L447.033,339.321 Z M449.789,388.735 C447.338,388.735 446.113,390.178 445.705,395.95 L443.664,420.836 L407.732,420.836 L427.74,156.809 C428.148,152.12 429.781,150.316 433.047,150.316 L471.021,150.316 C474.287,150.316 475.92,152.12 476.33,156.809 L496.336,420.836 L459.996,420.836 L457.955,395.95 C457.547,390.178 456.322,388.735 453.871,388.735 L449.789,388.735 L449.789,388.735 L449.789,388.735 L449.789,388.735 Z M556.037,382.586 L556.037,420.836 L501.846,420.836 L501.846,153.923 C501.846,151.399 503.07,150.316 505.93,150.316 L532.98,150.316 C535.84,150.316 537.064,151.399 537.064,153.923 L537.064,378.979 L551.953,378.979 C554.811,378.979 556.037,380.061 556.037,382.586 L556.037,382.586 Z M96.396,423 C59.648,423 57.606,384.994 57.606,354.469 L57.606,217.045 C57.606,191.796 59.648,148.513 96.396,148.513 C133.144,148.513 135.186,191.796 135.186,217.045 L135.186,354.469 C135.186,380.799 133.144,423 96.396,423 L96.396,423 Z M183.367,423 C146.619,423 144.577,380.799 144.577,354.469 L144.577,153.923 C144.577,151.399 145.802,150.316 148.66,150.316 L175.712,150.316 C178.571,150.316 179.796,151.399 179.796,153.923 L179.796,371.784 C179.796,378.274 180.509,382.602 183.367,382.602 C186.225,382.602 186.939,378.274 186.939,371.784 L186.939,153.923 C186.939,151.399 188.163,150.316 191.022,150.316 L218.074,150.316 C220.932,150.316 222.157,151.399 222.157,153.923 L222.157,354.469 C222.157,380.799 220.115,423 183.367,423 L183.367,423 Z M274.013,206.225 C274.013,194.403 272.379,190.353 269.521,190.353 L266.767,190.353 L266.767,264.516 L269.521,264.516 C273.604,264.516 274.013,259.176 274.013,250.159 L274.013,206.225 L274.013,206.225 L274.013,206.225 L274.013,206.225 Z M0,382.75 C0,380.225 1.246,379.164 4.103,379.164 C4.103,379.164 9.491,379.166 9.929,379.164 C12.097,379.159 13.267,377.377 13.267,368.327 L13.302,153.923 C13.302,151.399 14.527,150.316 17.385,150.316 L44.437,150.316 C47.295,150.316 48.52,151.399 48.52,153.923 L48.52,360.6 C48.52,405.314 43.738,423 18.404,423 C13.812,423 4.927,421.417 0,419.471 C0.001,419.471 0,382.75 0,382.75 L0,382.75 Z M0,382.75" id="Fill-2" sketch:type="MSShapeGroup"></path>
                <path d="M492.955,93.278 L498.771,34.061 L499.603,34.061 L504.172,93.278 L492.955,93.278 L492.955,93.278 L492.955,93.278 L492.955,93.278 Z M532.251,4.672 C531.419,0.724 530.173,0.285 528.096,0.285 L470.694,0.285 C468.617,0.285 467.371,0.724 466.539,4.672 L442.191,144.16 L487.97,144.16 L490.463,131 C491.293,127.492 492.955,127.054 495.448,127.054 L503.342,127.054 C505.836,127.054 507.498,127.492 508.328,131 L510.821,144.16 L556.109,144.16 L532.251,4.672 L532.251,4.672 Z M532.251,4.672" id="Fill-3" sketch:type="MSShapeGroup"></path>
            </g>
            <g id="Group" sketch:type="MSLayerGroup" transform="translate(87.000000, 93.000000)"></g>
        </g>
    </g>
</svg>