<?xml version="1.0" encoding="UTF-8" standalone="no"?>
<svg width="1067px" height="1517px" viewBox="0 0 1067 1517" version="1.1" xmlns="http://www.w3.org/2000/svg" xmlns:xlink="http://www.w3.org/1999/xlink" xmlns:sketch="http://www.bohemiancoding.com/sketch/ns">
    <title>bigbg</title>
    <description>Created with Sketch (http://www.bohemiancoding.com/sketch)</description>
    <defs></defs>
    <g id="Page-1" stroke="none" stroke-width="1" fill="none" fill-rule="evenodd" sketch:type="MSPage">
        <g id="backgrounds-copy" sketch:type="MSLayerGroup" transform="translate(0.000000, 120.000000)" fill="#F54F2D">
            <path d="M0,-119.53125 L0,1396.35937 L1067,1396.35937 L1067,-119.53125 L0,-119.53125 Z M448.508,508.278 L459.726,508.278 L455.156,449.061 L454.325,449.061 L448.508,508.278 Z M318.739,559.16 C316.662,559.16 315.415,558.722 314.169,554.774 L297.134,507.401 L297.134,559.16 L256,559.16 L256,420.111 C256,417.04 257.247,415.285 260.155,415.285 L296.303,415.285 C298.38,415.285 299.211,415.724 300.873,419.672 L324.556,480.643 L347.824,419.672 C349.486,415.724 350.317,415.285 352.394,415.285 L388.957,415.285 C391.866,415.285 393.112,417.04 393.112,420.111 L393.112,559.16 L351.563,559.16 L351.563,507.401 L334.943,554.774 C333.697,558.722 332.451,559.16 330.373,559.16 L318.739,559.16 L318.739,559.16 L318.739,559.16 L318.739,559.16 Z M593.563,500.821 L617.244,559.16 L572.787,559.16 L557.414,516.612 L557.414,559.16 L516.281,559.16 L516.281,420.111 C516.281,417.04 517.527,415.285 520.436,415.285 L569.049,415.285 C590.816,415.285 612.133,419.146 612.133,459.941 C612.133,483.543 607.752,497.531 593.563,500.821 L593.563,500.821 Z M664.451,507.559 L664.451,559.16 L622.072,559.16 L622.072,420.111 C622.072,417.04 623.318,415.285 626.227,415.285 L705.9,415.285 C708.809,415.285 710.055,417.04 710.055,420.111 L710.055,444.675 C710.055,447.745 708.809,449.5 705.9,449.5 L664.451,449.5 L664.451,472.998 L697.59,472.998 C700.498,472.998 701.744,474.753 701.744,477.824 L701.744,502.733 C701.744,505.804 700.498,507.559 697.59,507.559 L664.451,507.559 L664.451,507.559 L664.451,507.559 L664.451,507.559 Z M562.023,479.327 C567.162,479.327 569.049,477.133 569.049,469.965 L569.049,460.378 C569.049,453.822 567.746,449.061 561.906,449.061 L558.244,449.061 L558.244,479.327 L562.023,479.327 L562.023,479.327 L562.023,479.327 L562.023,479.327 Z M511.247,559.16 L465.959,559.16 L463.466,546 C462.635,542.492 460.973,542.054 458.48,542.054 L450.586,542.054 C448.092,542.054 446.431,542.492 445.6,546 L443.107,559.16 L397.818,559.16 L421.677,419.672 C422.508,415.724 423.754,415.285 425.832,415.285 L483.233,415.285 C485.311,415.285 486.557,415.724 487.388,419.672 L511.247,559.16 Z M573.293,835.836 L534.504,835.836 L523.888,738.18 L523.48,738.18 L523.48,835.836 L487.548,835.836 L487.548,568.923 C487.548,566.399 488.773,565.316 491.631,565.316 L529.196,565.316 C555.572,565.316 564.311,571.255 564.311,634.246 L564.311,641.989 C564.311,664.862 565.258,698.645 553.287,704.043 L573.293,835.836 Z M352.396,603.911 C349.538,603.911 348.825,608.24 348.825,614.732 L348.825,786.784 C348.825,793.274 349.538,797.602 352.396,797.602 C355.254,797.602 355.968,793.274 355.968,786.784 L355.968,614.732 C355.968,608.24 355.254,603.911 352.396,603.911 L352.396,603.911 Z M624.637,676.688 L625.045,676.688 L625.045,568.923 C625.045,566.399 626.271,565.316 629.129,565.316 L654.852,565.316 C657.711,565.316 658.936,566.399 658.936,568.923 L658.936,835.836 L624.637,835.836 L612.389,722.578 L611.98,722.578 L611.98,835.836 L577.682,835.836 L577.682,568.923 C577.682,566.399 578.906,565.316 581.764,565.316 L606.672,565.316 C609.939,565.316 611.572,567.12 611.98,571.809 L624.637,676.688 L624.637,676.688 L624.637,676.688 L624.637,676.688 Z M703.033,754.321 L712.627,754.321 L708.646,633.127 L707.83,633.127 L703.033,754.321 L703.033,754.321 L703.033,754.321 L703.033,754.321 Z M705.789,803.735 C703.338,803.735 702.113,805.178 701.705,810.95 L699.664,835.836 L663.732,835.836 L683.74,571.809 C684.148,567.12 685.781,565.316 689.047,565.316 L727.021,565.316 C730.287,565.316 731.92,567.12 732.33,571.809 L752.336,835.836 L715.996,835.836 L713.955,810.95 C713.547,805.178 712.322,803.735 709.871,803.735 L705.789,803.735 L705.789,803.735 L705.789,803.735 L705.789,803.735 Z M812.037,797.586 L812.037,835.836 L757.846,835.836 L757.846,568.923 C757.846,566.399 759.07,565.316 761.93,565.316 L788.98,565.316 C791.84,565.316 793.064,566.399 793.064,568.923 L793.064,793.979 L807.953,793.979 C810.811,793.979 812.037,795.061 812.037,797.586 L812.037,797.586 Z M352.396,838 C315.648,838 313.606,799.994 313.606,769.469 L313.606,632.045 C313.606,606.796 315.648,563.513 352.396,563.513 C389.144,563.513 391.186,606.796 391.186,632.045 L391.186,769.469 C391.186,795.799 389.144,838 352.396,838 L352.396,838 Z M439.367,838 C402.619,838 400.577,795.799 400.577,769.469 L400.577,568.923 C400.577,566.399 401.802,565.316 404.66,565.316 L431.712,565.316 C434.571,565.316 435.796,566.399 435.796,568.923 L435.796,786.784 C435.796,793.274 436.509,797.602 439.367,797.602 C442.225,797.602 442.939,793.274 442.939,786.784 L442.939,568.923 C442.939,566.399 444.163,565.316 447.022,565.316 L474.074,565.316 C476.932,565.316 478.157,566.399 478.157,568.923 L478.157,769.469 C478.157,795.799 476.115,838 439.367,838 L439.367,838 Z M530.013,621.225 C530.013,609.403 528.379,605.353 525.521,605.353 L522.767,605.353 L522.767,679.516 L525.521,679.516 C529.604,679.516 530.013,674.176 530.013,665.159 L530.013,621.225 L530.013,621.225 L530.013,621.225 L530.013,621.225 Z M256,797.75 C256,795.225 257.246,794.164 260.103,794.164 C260.103,794.164 265.491,794.166 265.929,794.164 C268.097,794.159 269.267,792.377 269.267,783.327 L269.302,568.923 C269.302,566.399 270.527,565.316 273.385,565.316 L300.437,565.316 C303.295,565.316 304.52,566.399 304.52,568.923 L304.52,775.6 C304.52,820.314 299.738,838 274.404,838 C269.812,838 260.927,836.417 256,834.471 C256.001,834.471 256,797.75 256,797.75 Z M748.955,508.278 L754.771,449.061 L755.603,449.061 L760.172,508.278 L748.955,508.278 Z M788.251,419.672 C787.419,415.724 786.173,415.285 784.096,415.285 L726.694,415.285 C724.617,415.285 723.371,415.724 722.539,419.672 L698.191,559.16 L743.97,559.16 L746.463,546 C747.293,542.492 748.955,542.054 751.448,542.054 L759.342,542.054 C761.836,542.054 763.498,542.492 764.328,546 L766.821,559.16 L812.109,559.16 L788.251,419.672 L788.251,419.672 Z M788.251,419.672" id="Rectangle-1" sketch:type="MSShapeGroup"></path>
        </g>
    </g>
</svg>