<?xml version="1.0" encoding="UTF-8" standalone="no"?>
<svg width="752px" height="145px" viewBox="0 0 752 145" version="1.1" xmlns="http://www.w3.org/2000/svg" xmlns:xlink="http://www.w3.org/1999/xlink" xmlns:sketch="http://www.bohemiancoding.com/sketch/ns">
    <!-- Generator: Sketch 3.5.2 (25235) - http://www.bohemiancoding.com/sketch -->
    <title>marfart</title>
    <desc>Created with Sketch.</desc>
    <defs></defs>
    <g id="Page-1" stroke="none" stroke-width="1" fill="none" fill-rule="evenodd" sketch:type="MSPage">
        <g id="marfart" sketch:type="MSLayerGroup" fill="#000000">
            <path d="M192.508,93.278 L203.726,93.278 L199.156,34.061 L198.325,34.061 L192.508,93.278 L192.508,93.278 L192.508,93.278 L192.508,93.278 Z M62.739,144.16 C60.662,144.16 59.415,143.722 58.169,139.774 L41.134,92.401 L41.134,144.16 L0,144.16 L0,5.111 C0,2.04 1.247,0.285 4.155,0.285 L40.303,0.285 C42.38,0.285 43.211,0.724 44.873,4.672 L68.556,65.643 L91.824,4.672 C93.486,0.724 94.317,0.285 96.394,0.285 L132.957,0.285 C135.866,0.285 137.112,2.04 137.112,5.111 L137.112,144.16 L95.563,144.16 L95.563,92.401 L78.943,139.774 C77.697,143.722 76.451,144.16 74.373,144.16 L62.739,144.16 L62.739,144.16 L62.739,144.16 L62.739,144.16 Z M337.563,85.821 L361.244,144.16 L316.787,144.16 L301.414,101.612 L301.414,144.16 L260.281,144.16 L260.281,5.111 C260.281,2.04 261.527,0.285 264.436,0.285 L313.049,0.285 C334.816,0.285 356.133,4.146 356.133,44.941 C356.133,68.543 351.752,82.531 337.563,85.821 L337.563,85.821 Z M637.282,85.821 L660.963,144.16 L616.506,144.16 L601.133,101.612 L601.133,144.16 L560,144.16 L560,5.111 C560,2.04 561.246,0.285 564.155,0.285 L612.768,0.285 C634.535,0.285 655.852,4.146 655.852,44.941 C655.852,68.543 651.471,82.531 637.282,85.821 L637.282,85.821 Z M686.017785,0.285 L747.791,0.285 C750.7,0.285 751.946,2.04 751.946,5.111 L751.946,29.675 C751.946,32.745 750.7,34.5 747.791,34.5 L706.342,34.5 L704.939826,33.5276198 C704.728747,34.1525291 704.604,34.5 704.604,34.5 L663.155,34.5 C660.246,34.5 659,32.745 659,29.675 L659,5.111 C659,2.04 660.246,0.285 663.155,0.285 L686.017785,0.285 Z M408.451,92.559 L408.451,144.16 L366.072,144.16 L366.072,5.111 C366.072,2.04 367.318,0.285 370.227,0.285 L449.9,0.285 C452.809,0.285 454.055,2.04 454.055,5.111 L454.055,29.675 C454.055,32.745 452.809,34.5 449.9,34.5 L408.451,34.5 L408.451,57.998 L441.59,57.998 C444.498,57.998 445.744,59.753 445.744,62.824 L445.744,87.733 C445.744,90.804 444.498,92.559 441.59,92.559 L408.451,92.559 Z M306.023,64.327 C311.162,64.327 313.049,62.133 313.049,54.965 L313.049,45.378 C313.049,38.822 311.746,34.061 305.906,34.061 L302.244,34.061 L302.244,64.327 L306.023,64.327 L306.023,64.327 L306.023,64.327 L306.023,64.327 Z M603.779,64.551 C608.918,64.551 610.805,62.357 610.805,55.189 L610.805,45.602 C610.805,39.046 609.502,34.285 603.662,34.285 L600,34.285 L600,64.551 L603.779,64.551 L603.779,64.551 L603.779,64.551 L603.779,64.551 Z M255.247,144.16 L209.959,144.16 L207.466,131 C206.635,127.492 204.973,127.054 202.48,127.054 L194.586,127.054 C192.092,127.054 190.431,127.492 189.6,131 L187.107,144.16 L141.818,144.16 L165.677,4.672 C166.508,0.724 167.754,0.285 169.832,0.285 L227.233,0.285 C229.311,0.285 230.557,0.724 231.388,4.672 L255.247,144.16 L255.247,144.16 Z" id="Fill-1" sketch:type="MSShapeGroup"></path>
            <rect id="Rectangle-26" sketch:type="MSShapeGroup" x="684" y="29" width="43" height="115"></rect>
            <path d="M492.955,93.278 L498.771,34.061 L499.603,34.061 L504.172,93.278 L492.955,93.278 L492.955,93.278 L492.955,93.278 L492.955,93.278 Z M532.251,4.672 C531.419,0.724 530.173,0.285 528.096,0.285 L470.694,0.285 C468.617,0.285 467.371,0.724 466.539,4.672 L442.191,144.16 L487.97,144.16 L490.463,131 C491.293,127.492 492.955,127.054 495.448,127.054 L503.342,127.054 C505.836,127.054 507.498,127.492 508.328,131 L510.821,144.16 L556.109,144.16 L532.251,4.672 L532.251,4.672 Z" id="Fill-3" sketch:type="MSShapeGroup"></path>
        </g>
    </g>
</svg>